<svg t="1660547022290" class="icon" viewBox="0 0 1024 1024" version="1.1" xmlns="http://www.w3.org/2000/svg" p-id="2415" width="200" height="200"><path d="M819.2 128H204.8c-84.48 0-153.6 69.12-153.6 153.6v460.8c0 84.48 69.12 153.6 153.6 153.6h614.4c84.48 0 153.6-69.12 153.6-153.6V281.6c0-84.48-69.12-153.6-153.6-153.6z m51.2 614.4c0 28.16-23.04 51.2-51.2 51.2H204.8c-28.16 0-51.2-23.04-51.2-51.2V281.6c0-28.16 23.04-51.2 51.2-51.2h614.4c28.16 0 51.2 23.04 51.2 51.2v460.8z" p-id="2416"></path><path d="M742.4 335.36c-28.16-7.68-56.32 10.24-61.44 38.4-20.48 79.36-89.6 128-156.16 128-64 0-128 10.24-179.2 40.96-56.32 30.72-97.28 81.92-112.64 153.6-5.12 28.16 10.24 53.76 38.4 61.44 28.16 5.12 53.76-10.24 61.44-38.4 10.24-43.52 30.72-69.12 61.44-87.04 33.28-17.92 76.8-28.16 130.56-28.16 112.64 0 222.72-79.36 253.44-204.8 7.68-30.72-7.68-58.88-35.84-64z" p-id="2417"></path><path d="M281.6 384m-51.2 0a51.2 51.2 0 1 0 102.4 0 51.2 51.2 0 1 0-102.4 0Z" p-id="2418"></path></svg>